<svg id="Layer_1" data-name="Layer 1" xmlns="http://www.w3.org/2000/svg" viewBox="0 0 210 125"><defs><style>.cls-1{fill:#ced5c1;}.cls-2{fill:#47563d;}</style></defs><g id="Group_154" data-name="Group 154"><path id="Path_24" data-name="Path 24" class="cls-1" d="M126.33,6.57C134.15,3.84,174.05-4.06,184,3.41s31.9,12.64,21.78,36c-11.91,27.48-1.32,51.29-7.94,55.5-46.74,29.75-60.91,29.76-80.06,29.82-17,0-31.71-22-85.47-30.42C-1.06,89.08-5,26.79,10,10.63,27.45-8.22,68.53,26.7,126.33,6.57Z"/></g><path id="Path_30" data-name="Path 30" class="cls-2" d="M53.24,65a18,18,0,0,0,5.57,1c3.3,0,5.24-1.82,5.24-4.86a4.33,4.33,0,0,0-1.12-3.18,6.84,6.84,0,0,0-3.56-1.77A9.64,9.64,0,0,1,57,55.28,1.4,1.4,0,0,1,56.28,54c0-1,.69-1.44,2.07-1.44a7.63,7.63,0,0,1,1.9.26v1.68h2.81v-4a17,17,0,0,0-4.79-.73c-3.33,0-5.14,1.59-5.14,4.57A3.94,3.94,0,0,0,54,57c.56.69,1.28,1.06,3.26,1.68a12.37,12.37,0,0,1,2.72,1,1.73,1.73,0,0,1,.93,1.53,1.93,1.93,0,0,1-2,1.89l-.2,0A10.3,10.3,0,0,1,56,62.7V60.83h-2.8ZM76,61.29a9.58,9.58,0,0,0-.54-3.72,4.73,4.73,0,0,0-4.69-2.93c-3.32,0-5.37,2.16-5.37,5.63a5.19,5.19,0,0,0,4.72,5.65,4.82,4.82,0,0,0,.85,0A9.05,9.05,0,0,0,76,64.45l-1.38-2.33a6.18,6.18,0,0,1-3.5,1.1,2.22,2.22,0,0,1-2.48-1.93H76ZM68.59,59A2.26,2.26,0,0,1,73,59Zm16.34,3.93H83.31V65.6h6.18V62.93H88V50.06H83.49v2.68h1.44Zm7.08,0H90.4V65.6h6.17V62.93H95.13v-8H90.57v2.68H92Zm-.25-9.4h3.11V50.3H91.76ZM99,62.93H97.53V65.6h5.87V62.93h-1.32V58.7a3.78,3.78,0,0,1,2.47-1.3c.79,0,1.18.63,1.18,1.9v3.63h-1.21V65.6h5.73V62.93h-1.41V59.47c0-3.52-.93-4.83-3.42-4.83A5,5,0,0,0,102.08,56v-1H97.52v2.68H99Zm13.49,0H111V65.6h5.33V63.14h-.78V50.06H111v2.68h1.44Zm6.26.21H118V65.6h5.74V62.93h-1.36l-2.91-3.13,2.46-2.23h1V54.94h-5.62v2.37h1.12l-2.76,2.45Zm13-.21H130.3V65.6h5.85V62.93h-1.3V58.67a3.68,3.68,0,0,1,2.44-1.27c.8,0,1.19.63,1.19,1.9v3.63h-1.21V65.6H143V62.93h-1.4V59.47c0-3.52-1-4.83-3.45-4.83a5,5,0,0,0-3.29,1.25V50.06H130.3v2.68h1.44Zm22.72-1.64a9.4,9.4,0,0,0-.54-3.72,4.72,4.72,0,0,0-4.69-2.93c-3.32,0-5.37,2.16-5.37,5.63a5.19,5.19,0,0,0,4.72,5.65,4.82,4.82,0,0,0,.85,0,9.05,9.05,0,0,0,4.94-1.48L153,62.12a6.18,6.18,0,0,1-3.5,1.1A2.22,2.22,0,0,1,147,61.29h7.45ZM147,59a2.27,2.27,0,0,1,4.43,0Zm10.17,3.93h-1.45V65.6h6.54V62.93h-2V59.24c.82-1.3,1.58-1.82,2.59-1.82a4.31,4.31,0,0,1,1.55.29l.41-2.76a5.09,5.09,0,0,0-1.81-.33c-1.14,0-1.77.37-2.89,1.75V55h-4.41v2.67h1.45Z"/></svg>