<svg id="Layer_1" data-name="Layer 1" xmlns="http://www.w3.org/2000/svg" viewBox="0 0 205 130"><defs><style>.cls-1{fill:#e2c2b6;}.cls-2{fill:#fffbf9;}</style></defs><g id="Group_157" data-name="Group 157"><path id="Path_24" data-name="Path 24" class="cls-1" d="M203.66,48.06C174.2,155.25,122.71,63,52.65,114.34S-2.49,76.41,15.57,32.83,218.26-15.48,203.66,48.06Z"/><path id="Path_25" data-name="Path 25" class="cls-2" d="M60.09,61.92H58.73V64.4H69.21V60h-2.6v1.92H63.09V52.48h1.74V50h-6.1v2.48h1.36Zm16.38-3.78a19.07,19.07,0,0,0-3.38.2c-2,.42-2.94,1.44-2.94,3.22,0,2,1.28,3.12,3.64,3.12a6.14,6.14,0,0,0,4.1-1.4,4.72,4.72,0,0,0,3.7,1.42,8.78,8.78,0,0,0,4.64-1.36L85,61.18a6.24,6.24,0,0,1-3.34,1,2,2,0,0,1-2.22-1.79h6.92A8.41,8.41,0,0,0,85.79,57a4.45,4.45,0,0,0-4.36-2.72,4.6,4.6,0,0,0-3.22,1.06,4.47,4.47,0,0,0-3.3-1,12.49,12.49,0,0,0-3.84.66l.62,2.36a8.57,8.57,0,0,1,3.08-.68c1.26,0,1.7.3,1.7,1.12Zm0,2.78c0,.54-.06.7-.34.92a2.88,2.88,0,0,1-1.78.44c-1,0-1.32-.24-1.32-.84s.46-1,1.4-1.12a17.31,17.31,0,0,1,2-.08Zm2.92-2.64a1.92,1.92,0,0,1,2-1.66,1.85,1.85,0,0,1,2,1.66ZM87.73,64a16.22,16.22,0,0,0,4.6.64c2.68,0,4.14-1.14,4.14-3.22a2.63,2.63,0,0,0-1-2.24,7.19,7.19,0,0,0-2.76-.94c-2-.44-2.24-.54-2.24-1.06s.36-.72,1.18-.72a10.71,10.71,0,0,1,1.78.16v1.08h2.4v-3.1a27.27,27.27,0,0,0-4.22-.4,4.12,4.12,0,0,0-3,.9,2.94,2.94,0,0,0-1,2.34c0,1.76.92,2.5,3.94,3.1a8.85,8.85,0,0,1,1.76.42c.28.14.42.32.42.52,0,.54-.5.86-1.34.86a8.76,8.76,0,0,1-2.28-.3V60.86h-2.4Zm16.76-2.12h-1.34V64.4h5.28V61.92h-1.06V58a3.23,3.23,0,0,1,2.12-1.2c.66,0,1,.56,1,1.76v3.36h-1V64.4h5V61.92h-1.16V58a3.13,3.13,0,0,1,2.12-1.2c.66,0,1,.56,1,1.76v3.36h-1V64.4h5.16V61.92h-1.3v-3.2c0-3.26-.84-4.48-3.06-4.48-1.14,0-1.72.26-3.34,1.5a2.57,2.57,0,0,0-2.64-1.5,4.36,4.36,0,0,0-3,1.24v-1h-4.14V57h1.34Zm26.72-1.52a8.93,8.93,0,0,0-.5-3.44,4.38,4.38,0,0,0-4.34-2.72c-3.08,0-5,2-5,5.22s2,5.24,5.16,5.24a8.4,8.4,0,0,0,4.58-1.36l-1.28-2.16a5.73,5.73,0,0,1-3.24,1,2.06,2.06,0,0,1-2.3-1.79h6.9Zm-6.9-2.12a2.1,2.1,0,0,1,4.1,0Zm9.42,3.64h-1.34V64.4h6.06V61.92h-1.84V58.5c.76-1.2,1.46-1.68,2.4-1.68a4.17,4.17,0,0,1,1.44.26l.38-2.56a4.84,4.84,0,0,0-1.68-.3c-1.06,0-1.64.34-2.68,1.62V54.52h-4.08V57h1.34Zm17.54-1.52a8.93,8.93,0,0,0-.5-3.44,4.38,4.38,0,0,0-4.34-2.72c-3.08,0-5,2-5,5.22s2,5.24,5.16,5.24a8.4,8.4,0,0,0,4.58-1.36l-1.28-2.16a5.73,5.73,0,0,1-3.24,1,2.06,2.06,0,0,1-2.3-1.79h6.9Zm-6.9-2.12a2.1,2.1,0,0,1,4.1,0Z"/></g></svg>