<svg xmlns="http://www.w3.org/2000/svg" width="191.497" height="187.374" viewBox="0 0 191.497 187.374">
  <g id="Group_153" data-name="Group 153" transform="translate(1661.867 -12097.674)">
    <path id="Path_26" data-name="Path 26" d="M103.713-8.94c7.455-42.016,32.687,25.267,29.932,41.346-2.681,15.644-15.32,54.11-41.251,77.939s-61.019,17.673-62.471,17.377C-23.846,116.764,96.258,33.076,103.713-8.94Z" transform="matrix(0.643, 0.766, -0.766, 0.643, -1573.674, 12099.815)" fill="#c9d3e3"/>
    <path id="Path_27" data-name="Path 27" d="M1.98-2.48H.62V0H11.1V-4.4H8.5v1.92H4.98v-9.44H6.72V-14.4H.62v2.48H1.98ZM18.36-6.26a18.63,18.63,0,0,0-3.38.2c-2.02.42-2.94,1.44-2.94,3.22,0,2.02,1.28,3.12,3.64,3.12a6.175,6.175,0,0,0,4.1-1.4A4.724,4.724,0,0,0,23.48.3a8.716,8.716,0,0,0,4.64-1.36L26.84-3.22A6.237,6.237,0,0,1,23.5-2.2,2.019,2.019,0,0,1,21.28-4H28.2a8.321,8.321,0,0,0-.52-3.44,4.444,4.444,0,0,0-4.36-2.72A4.607,4.607,0,0,0,20.1-9.1a4.422,4.422,0,0,0-3.3-1.04,12.3,12.3,0,0,0-3.84.66l.62,2.36a8.539,8.539,0,0,1,3.08-.68c1.26,0,1.7.3,1.7,1.12Zm0,2.78c0,.54-.06.7-.34.92a2.921,2.921,0,0,1-1.78.44c-.96,0-1.32-.24-1.32-.84s.46-.96,1.4-1.12a16.27,16.27,0,0,1,2.04-.08Zm2.92-2.64a1.922,1.922,0,0,1,2-1.66,1.848,1.848,0,0,1,2,1.66ZM29.62-.36a16.492,16.492,0,0,0,4.6.64c2.68,0,4.14-1.14,4.14-3.22a2.618,2.618,0,0,0-1.02-2.24,7.055,7.055,0,0,0-2.76-.94c-2.02-.44-2.24-.54-2.24-1.06,0-.5.36-.72,1.18-.72a10.158,10.158,0,0,1,1.78.16v1.08h2.4v-3.1a26.506,26.506,0,0,0-4.22-.4,4.119,4.119,0,0,0-3,.9,2.974,2.974,0,0,0-.96,2.34c0,1.76.92,2.5,3.94,3.1a8.227,8.227,0,0,1,1.76.42c.28.14.42.32.42.52,0,.54-.5.86-1.34.86a8.985,8.985,0,0,1-2.28-.3V-3.54h-2.4ZM46.38-2.48H45.04V0h5.28V-2.48H49.26V-6.4a3.2,3.2,0,0,1,2.12-1.2c.66,0,.96.56.96,1.76v3.36h-.98V0h5.02V-2.48H55.22V-6.4a3.151,3.151,0,0,1,2.12-1.2c.66,0,.96.56.96,1.76v3.36h-.98V0h5.16V-2.48h-1.3v-3.2c0-3.26-.84-4.48-3.06-4.48-1.14,0-1.72.26-3.34,1.5a2.555,2.555,0,0,0-2.64-1.5,4.367,4.367,0,0,0-2.96,1.24v-.96H45.04V-7.4h1.34ZM73.1-4a8.749,8.749,0,0,0-.5-3.44,4.372,4.372,0,0,0-4.34-2.72c-3.08,0-4.98,2-4.98,5.22C63.28-1.7,65.26.3,68.44.3a8.378,8.378,0,0,0,4.58-1.36L71.74-3.22A5.726,5.726,0,0,1,68.5-2.2,2.061,2.061,0,0,1,66.2-4ZM66.2-6.12a1.916,1.916,0,0,1,2.02-1.66A1.9,1.9,0,0,1,70.3-6.12Zm9.42,3.64H74.28V0h6.06V-2.48H78.5V-5.9c.76-1.2,1.46-1.68,2.4-1.68a3.984,3.984,0,0,1,1.44.26l.38-2.56a4.8,4.8,0,0,0-1.68-.3c-1.06,0-1.64.34-2.68,1.62V-9.88H74.28V-7.4h1.34ZM93.16-4a8.749,8.749,0,0,0-.5-3.44,4.372,4.372,0,0,0-4.34-2.72c-3.08,0-4.98,2-4.98,5.22C83.34-1.7,85.32.3,88.5.3a8.378,8.378,0,0,0,4.58-1.36L91.8-3.22A5.726,5.726,0,0,1,88.56-2.2,2.061,2.061,0,0,1,86.26-4Zm-6.9-2.12a1.916,1.916,0,0,1,2.02-1.66,1.9,1.9,0,0,1,2.08,1.66Z" transform="translate(-1613.008 12212.837)" fill="#f9f4fd"/>
  </g>
</svg>
