<svg xmlns="http://www.w3.org/2000/svg" width="668.284" height="676.396" viewBox="0 0 668.284 676.396">
  <g id="Path_23" data-name="Path 23" transform="translate(0 -91.46)" fill="#fff">
    <path d="M 454.1842651367188 767.3552856445312 C 438.9646606445312 767.3552856445312 422.3550415039062 766.3038330078125 404.8170471191406 764.2299194335938 C 386.9849548339844 762.121337890625 367.5979614257812 758.8856201171875 347.1946411132812 754.6126098632812 C 327.4983520507812 750.4877319335938 308.5332641601562 746.0097045898438 290.8263549804688 741.3027954101562 C 273.3235473632812 736.6502075195312 256.51806640625 731.6326293945312 240.876953125 726.389404296875 C 225.439453125 721.2144165039062 210.6648559570312 715.6618041992188 196.9635620117188 709.885498046875 C 183.4634552001953 704.1942138671875 170.5907592773438 698.1110229492188 158.7030487060547 691.804931640625 C 147.0120544433594 685.6032104492188 135.9121551513672 678.9940185546875 125.7116546630859 672.1610107421875 C 115.7012557983398 665.4554443359375 106.2445526123047 658.32470703125 97.60435485839844 650.9672241210938 C 89.14555358886719 643.7642211914062 81.20225524902344 636.1160888671875 73.99505615234375 628.2355346679688 C 66.95885467529297 620.5419311523438 60.39885330200195 612.3799438476562 54.49725341796875 603.976318359375 C 48.75475311279297 595.79931640625 43.4482536315918 587.1263427734375 38.72515487670898 578.1983032226562 C 34.14795303344727 569.5463256835938 29.96565437316895 560.3649291992188 26.29435539245605 550.909423828125 C 22.7547550201416 541.7930908203125 19.56795501708984 532.1063232421875 16.82245445251465 522.1180419921875 C 14.19315433502197 512.552490234375 11.87355422973633 502.3633117675781 9.928154945373535 491.8336181640625 C 6.328554630279541 472.3512268066406 3.848854541778564 451.0888061523438 2.34745454788208 426.8313293457031 C 1.08705461025238 406.4676208496094 0.5000545978546143 383.9605102539062 0.5000545978546143 356.0000305175781 C 0.5000545978546143 348.0324096679688 0.9501546025276184 340.2732238769531 1.837954640388489 332.9378051757812 C 2.705954551696777 325.76611328125 4.017554759979248 318.7909240722656 5.736354827880859 312.2059020996094 C 7.414254665374756 305.7777099609375 9.529254913330078 299.5330200195312 12.02285480499268 293.6454162597656 C 14.45275497436523 287.9078063964844 17.31395530700684 282.3399047851562 20.52685546875 277.0963134765625 C 23.65175437927246 271.9964294433594 27.20245552062988 267.0514221191406 31.08035469055176 262.3988037109375 C 34.84325408935547 257.8842163085938 39.02755355834961 253.5089111328125 43.51705551147461 249.3945159912109 C 47.86055374145508 245.4139099121094 52.62255477905273 241.5560150146484 57.67055511474609 237.9279174804688 C 62.53645324707031 234.4307098388672 67.81965637207031 231.0382080078125 73.37355804443359 227.8448181152344 C 83.90145111083984 221.7912139892578 95.47365570068359 216.3522186279297 108.7515563964844 211.2169189453125 C 120.5889511108398 206.6386108398438 133.5220489501953 202.4084167480469 148.2897491455078 198.2845153808594 C 175.7382507324219 190.6194152832031 205.5487518310547 184.4959106445312 234.3777618408203 178.5740203857422 C 264.1095581054688 172.4667205810547 294.8535461425781 166.1515197753906 323.1603393554688 158.1216125488281 C 338.4072570800781 153.7964172363281 351.7423400878906 149.3352203369141 363.9276428222656 144.4828186035156 C 370.5331420898438 141.8524169921875 376.8675537109375 139.0705108642578 382.7549438476562 136.2144165039062 C 388.9340515136719 133.2167205810547 394.8358459472656 130.0330200195312 400.2964477539062 126.7518157958984 C 419.0027465820312 115.5113143920898 438.3757629394531 106.8170166015625 457.8771667480469 100.9102172851562 C 477.4850463867188 94.97121429443359 496.8662414550781 91.95991516113281 515.4825439453125 91.95991516113281 C 536.240966796875 91.95991516113281 555.6771850585938 95.69781494140625 573.2510375976562 103.0697174072266 C 591.6717529296875 110.7969131469727 607.8236694335938 122.4421157836914 621.2578735351562 137.6819152832031 C 640.2865600585938 159.2679138183594 653.6771850585938 187.7833099365234 661.057861328125 222.4360198974609 C 662.99462890625 231.5291137695312 664.5331420898438 241.1617126464844 665.630859375 251.0662231445312 C 666.753173828125 261.1937255859375 667.4443359375 271.8751220703125 667.6852416992188 282.8138122558594 C 667.9315795898438 293.9982299804688 667.7135620117188 305.751708984375 667.0374755859375 317.747802734375 C 666.3461303710938 330.0119018554688 665.1573486328125 342.8607177734375 663.5039672851562 355.9373168945312 C 658.8160400390625 393.014404296875 655.5162353515625 428.6405029296875 652.3250732421875 463.0936279296875 C 648.2815551757812 506.7483215332031 644.4622802734375 547.98193359375 638.3938598632812 584.7640380859375 C 635.155029296875 604.3956909179688 631.5181274414062 621.3516235351562 627.2753295898438 636.600830078125 C 624.994873046875 644.797119140625 622.4957275390625 652.6170043945312 619.8473510742188 659.8433227539062 C 617.0870361328125 667.375 614.0629272460938 674.5404052734375 610.8588256835938 681.1404418945312 C 596.983642578125 709.7214965820312 578.5730590820312 730.4498901367188 554.5747680664062 744.510009765625 C 548.2318725585938 748.226318359375 541.3839721679688 751.5264892578125 534.2213745117188 754.3190307617188 C 526.9210815429688 757.1653442382812 519.0634765625 759.5740966796875 510.8667602539062 761.4786376953125 C 502.5286560058594 763.4158935546875 493.5795593261719 764.891845703125 484.2677612304688 765.8654174804688 C 474.8125610351562 766.85400390625 464.6909484863281 767.3552856445312 454.1842651367188 767.3552856445312 Z" stroke="none"/>
    <path d="M 515.4825439453125 92.45989990234375 C 496.9153442382812 92.45989990234375 477.5828552246094 95.4639892578125 458.0220336914062 101.3887329101562 C 438.56005859375 107.2835083007812 419.2250671386719 115.9611206054688 400.5540466308594 127.180419921875 C 395.0806579589844 130.46923828125 389.1656494140625 133.6600952148438 382.9732666015625 136.6642456054688 C 377.074951171875 139.5256958007812 370.7293395996094 142.3125 364.1126403808594 144.9473266601562 C 351.9112548828125 149.8060913085938 338.5602416992188 154.272705078125 323.2968444824219 158.6026000976562 C 294.9722595214844 166.6375122070312 264.2190551757812 172.9547119140625 234.4783630371094 179.0638427734375 C 205.6577453613281 184.98388671875 175.8558349609375 191.105712890625 148.4241333007812 198.7659912109375 C 133.6721801757812 202.8856201171875 120.7540283203125 207.11083984375 108.931884765625 211.6832275390625 C 95.677978515625 216.8092041015625 84.12823486328125 222.2374877929688 73.6226806640625 228.2781982421875 C 68.08343505859375 231.4631958007812 62.8145751953125 234.846435546875 57.9622802734375 238.3338012695312 C 52.93023681640625 241.950439453125 48.183837890625 245.7958374023438 43.854736328125 249.7631225585938 C 39.38177490234375 253.8624877929688 35.21295166015625 258.221435546875 31.46435546875 262.7189331054688 C 27.60186767578125 267.35302734375 24.06536865234375 272.2781372070312 20.95306396484375 277.3575439453125 C 17.753173828125 282.5798950195312 14.9034423828125 288.1256103515625 12.483154296875 293.8403930664062 C 9.99908447265625 299.705810546875 7.891845703125 305.9273071289062 6.22003173828125 312.3320922851562 C 4.5069580078125 318.8955078125 3.1995849609375 325.8485107421875 2.334228515625 332.9979248046875 C 1.4488525390625 340.3134155273438 0.99993896484375 348.0524291992188 0.99993896484375 356 C 0.99993896484375 383.9499206542969 1.586669921875 406.4472045898438 2.846435546875 426.8004150390625 C 4.3465576171875 451.0375061035156 6.8238525390625 472.2804260253906 10.41973876953125 491.7427062988281 C 12.3626708984375 502.2585144042969 14.678955078125 512.43359375 17.3045654296875 521.9854125976562 C 20.0455322265625 531.9573974609375 23.2269287109375 541.6279296875 26.7603759765625 550.7283935546875 C 30.4246826171875 560.1658935546875 34.598876953125 569.3295288085938 39.16705322265625 577.9644775390625 C 43.88037109375 586.8740234375 49.17584228515625 595.529052734375 54.9063720703125 603.6889038085938 C 60.7957763671875 612.0750122070312 67.34222412109375 620.22021484375 74.36395263671875 627.8980102539062 C 81.5572509765625 635.763427734375 89.4854736328125 643.3969116210938 97.928466796875 650.5865478515625 C 106.5541381835938 657.931640625 115.995361328125 665.0505981445312 125.9899291992188 671.74560546875 C 136.17626953125 678.569091796875 147.2613525390625 685.16943359375 158.9373779296875 691.3632202148438 C 170.8120727539062 697.662353515625 183.6712646484375 703.7391357421875 197.1577453613281 709.4248046875 C 210.8475646972656 715.1961059570312 225.6102600097656 720.7443237304688 241.0358581542969 725.915283203125 C 256.6669616699219 731.1551513671875 273.462158203125 736.1696166992188 290.9548645019531 740.819580078125 C 308.6531677246094 745.5242309570312 327.6094665527344 750.000244140625 347.2971496582031 754.1232299804688 C 367.6859436035156 758.3931884765625 387.0582580566406 761.6265258789062 404.8757629394531 763.7333984375 C 422.3943481445312 765.804931640625 438.9841613769531 766.8553466796875 454.1842651367188 766.8553466796875 C 464.6736450195312 766.8553466796875 474.7777709960938 766.3550415039062 484.2157592773438 765.3681030273438 C 493.5070495605469 764.396728515625 502.4356689453125 762.9241943359375 510.7535400390625 760.9916381835938 C 518.9270629882812 759.092529296875 526.7616577148438 756.6907958984375 534.0397338867188 753.8532104492188 C 541.1778564453125 751.0701904296875 548.0017700195312 747.781494140625 554.322021484375 744.07861328125 C 578.2322387695312 730.0701293945312 596.5784301757812 709.4113159179688 610.4090576171875 680.9219360351562 C 613.6058349609375 674.3369140625 616.6233520507812 667.1871948242188 619.3779296875 659.6712036132812 C 622.021728515625 652.4573364257812 624.5167236328125 644.650146484375 626.7936401367188 636.4666137695312 C 631.0315551757812 621.2349243164062 634.6646728515625 604.2962036132812 637.9005737304688 584.6824951171875 C 643.966064453125 547.9178466796875 647.784423828125 506.6928100585938 651.8271484375 463.0473022460938 C 655.0186767578125 428.5901184082031 658.3189697265625 392.9599304199219 663.0078735351562 355.8746337890625 C 664.6597290039062 342.8093872070312 665.8475341796875 329.9722900390625 666.5381469726562 317.7197265625 C 667.2135620117188 305.7366333007812 667.4312744140625 293.9962158203125 667.1852416992188 282.8248291015625 C 666.9447631835938 271.9006958007812 666.2545776367188 261.234130859375 665.1337280273438 251.121337890625 C 664.0379638671875 241.2332153320312 662.5020751953125 231.6171264648438 660.5687255859375 222.5401000976562 C 653.2061767578125 187.9725341796875 639.8538818359375 159.5333251953125 620.8827514648438 138.0125122070312 C 607.4988403320312 122.829833984375 591.4081420898438 111.228515625 573.0575561523438 103.5308227539062 C 555.5452880859375 96.1846923828125 536.1741333007812 92.45989990234375 515.4825439453125 92.45989990234375 M 515.4825439453125 91.45989990234375 C 609.90283203125 91.45989990234375 687.6564331054688 168.898681640625 663.9999389648438 356 C 635.2128295898438 583.6802978515625 657.73974609375 767.8552856445312 454.1842651367188 767.8552856445312 C 423.8158569335938 767.8552856445312 388.4474792480469 763.7628173828125 347.0921630859375 755.1019897460938 C 28.5374755859375 688.3890991210938 -6.103515625e-05 552.61328125 -6.103515625e-05 356 C -6.103515625e-05 159.3865966796875 268.2660522460938 205.50439453125 400.0389404296875 126.3232421875 C 437.5826416015625 103.7635498046875 477.8627624511719 91.45989990234375 515.4825439453125 91.45989990234375 Z" stroke="none" fill="#707070"/>
  </g>
</svg>
