<svg id="Layer_1" data-name="Layer 1" xmlns="http://www.w3.org/2000/svg" viewBox="0 0 210 125"><defs><style>.cls-1{fill:#c6b8d1;}.cls-2{fill:#f7f5fb;}</style></defs><g id="Group_154" data-name="Group 154"><path id="Path_24" data-name="Path 24" class="cls-1" d="M124.64,6.85c26-11.95,47.46-3.44,62.82,9.65C212,37.42,214.8,84,194.59,104.64c-8,8.2-81.86,21.73-109,18.83-48.87-5.23-75.29-32.53-76.28-34C5.89,84.19,1,75.47,2.16,64.9,6.21,28.14,83.44,25.76,124.64,6.85Z"/></g><path id="Path_30" data-name="Path 30" class="cls-2" d="M54.26,74.61a17.85,17.85,0,0,0,5.57,1c3.3,0,5.24-1.82,5.24-4.86A4.33,4.33,0,0,0,64,67.53a6.85,6.85,0,0,0-3.57-1.78,9.79,9.79,0,0,1-2.33-.82,1.4,1.4,0,0,1-.75-1.27c0-1,.69-1.44,2.07-1.44a7.63,7.63,0,0,1,1.9.26v1.68h2.81v-4a17,17,0,0,0-4.8-.73C56,59.41,54.14,61,54.14,64A4,4,0,0,0,55,66.64c.56.69,1.27,1.06,3.26,1.68a13.32,13.32,0,0,1,2.72,1,1.75,1.75,0,0,1,.93,1.53,1.93,1.93,0,0,1-2,1.89l-.2,0a10.3,10.3,0,0,1-2.7-.39V70.48h-2.8Zm22.79-3.67a9.42,9.42,0,0,0-.54-3.72,4.71,4.71,0,0,0-4.68-2.93c-3.33,0-5.38,2.16-5.38,5.63a5.2,5.2,0,0,0,4.72,5.65,4.83,4.83,0,0,0,.85,0,9,9,0,0,0,5-1.48l-1.39-2.33a6.12,6.12,0,0,1-3.49,1.1,2.23,2.23,0,0,1-2.49-1.93h7.45ZM69.6,68.65a2.07,2.07,0,0,1,2.18-1.79A2,2,0,0,1,74,68.65ZM86,72.58H84.33v2.68H90.5V72.58H89.06V59.71H84.5v2.68h1.44Zm7.08,0H91.41v2.68h6.18V72.58H96.15v-8H91.58v2.68H93Zm-.26-9.39h3.11V60H92.77ZM100,72.58H98.54v2.68h5.88V72.58H103.1V68.35a3.78,3.78,0,0,1,2.46-1.3c.8,0,1.19.63,1.19,1.9v3.63h-1.21v2.68h5.72V72.58h-1.41V69.12c0-3.52-.93-4.83-3.41-4.83a5,5,0,0,0-3.35,1.34v-1H98.54v2.68H100Zm13.5,0H112v2.68h5.33V72.79h-.77V59.71H112v2.68h1.45Zm6.26.21H119v2.47h5.74V72.58h-1.36l-2.92-3.13,2.47-2.23h1V64.59h-5.61V67h1.12l-2.76,2.45Zm13-.21h-1.45v2.68h5.85V72.58h-1.29V68.32a3.68,3.68,0,0,1,2.44-1.27c.8,0,1.19.63,1.19,1.9v3.63h-1.21v2.68H144V72.58h-1.4V69.12c0-3.52-1-4.83-3.46-4.83a5,5,0,0,0-3.28,1.25V59.71h-4.56v2.68h1.45Zm22.71-1.64a9.42,9.42,0,0,0-.54-3.72,4.71,4.71,0,0,0-4.68-2.93c-3.33,0-5.38,2.16-5.38,5.63a5.21,5.21,0,0,0,4.72,5.65,4.84,4.84,0,0,0,.85,0,9,9,0,0,0,4.95-1.48L154,71.77a6.18,6.18,0,0,1-3.5,1.1A2.22,2.22,0,0,1,148,70.94h7.44ZM148,68.65a2.26,2.26,0,0,1,4.42,0Zm10.17,3.93h-1.45v2.68h6.54V72.58h-2V68.89c.82-1.3,1.59-1.82,2.6-1.82a4.35,4.35,0,0,1,1.55.29l.41-2.76a5.09,5.09,0,0,0-1.81-.33c-1.15,0-1.77.37-2.9,1.75V64.6h-4.4v2.67h1.45Z"/></svg>