<svg xmlns="http://www.w3.org/2000/svg" viewBox="0 0 90 135"><defs><style>.cls-1{fill:#1d1d1b;}</style></defs><g id="Layer_2" data-name="Layer 2"><path class="cls-1" d="M88.78,67.29c0,1.44-.83,2.4-1.19,2.4-.73,0-1-1-1.32-2.52-1.45-6.84-4.08-7.56-10.8-8.16-4.32-.36-17-.12-22.16-.12-.84,0-1.53,1.2-1.56,2.16-.3,8.48-.53,13.8-.36,28.52a22.85,22.85,0,0,0,8.67-2.52,19.62,19.62,0,0,0,8.76-8.91c1.55-3.45,1.93-4.24,2.89-4.21.6,0,.79,1.64.64,2.58-.18,2-.71,7.38-.89,9.13-.16,1.2-1.77,2.9-3.23,3.66a43.32,43.32,0,0,1-16.82,4.49c0,.85,0,1.83,0,3-.12,8.4-.42,16.83.24,25.2.48,6.12.84,6.84,7.43,7.92,1.57.24,2.76.84,2.76,1.56s-1.43,1.32-2.63,1.32c-2.28,0-7.44-.36-12.36-.36-4.68,0-11.28.36-13.32.36-1.68,0-2.52-.48-2.52-1.08s.72-1,2.16-1.44c6.48-1.32,7.08-2.64,7.8-7.8.51-3.88.67-17,.71-28.7-11.59-1-24.14-6.15-32-17.1C3.58,68.28.93,57,1.25,47.06,1.69,33.07,7,19.9,19.43,10.87a45.92,45.92,0,0,1,29-8.65A65.68,65.68,0,0,1,65.71,5.46,14.06,14.06,0,0,0,71.07,6.7c.6,0,1.27,1.53,1.13,2.06a137,137,0,0,0,0,13.74c.17,2.16-.46,3.22-1.18,3.19-.48,0-1-1.11-1.47-2.87-1.61-6.11-3.57-8.6-7-11.4-3.15-2.93-9.3-5.95-17.1-6.19-19.91-.63-31.56,15-32.26,37C13,52.41,14.42,59.46,16.64,65.32c5.75,14.68,16,21.77,25,23.78V87.81c0-7.08-.12-16-.36-21.36-.24-6.6-1-8.28-7.44-9-1.08-.12-2.4-.36-2.4-1.32s1.32-1.2,3.36-1.2c3.36,0,7.8.36,11.88.36H78.83c3.72,0,7.56-.72,8.52-.72a1.91,1.91,0,0,1,1.2,1.56C88.55,59.49,88.78,63.81,88.78,67.29Z"/></g></svg>