<svg id="Layer_1" data-name="Layer 1" xmlns="http://www.w3.org/2000/svg" viewBox="0 0 180 95"><defs><style>.cls-1{fill:#e3cfb6;}.cls-2{fill:#695342;}</style></defs><g id="Group_153" data-name="Group 153"><path id="Path_26" data-name="Path 26" class="cls-1" d="M78.38,13.6C43.47,6.86,29.23-3.14,16.69,6.08,4.44,15.09-5.87,42.8,7.78,52.13,22.26,62,77.78,114,102.86,82.79c23-28.63,64.05-27.57,65-28.76,4.93-6.11,13.82-18.32,9.83-27.53C171,11.1,137,24.92,78.38,13.6Z"/></g><path id="Path_30" data-name="Path 30" class="cls-2" d="M28.58,48.84a18,18,0,0,0,5.57.95c3.3,0,5.24-1.81,5.24-4.86a4.36,4.36,0,0,0-1.12-3.17A6.8,6.8,0,0,0,34.71,40a10.33,10.33,0,0,1-2.34-.82,1.41,1.41,0,0,1-.75-1.27c0-1,.69-1.44,2.07-1.44a7.19,7.19,0,0,1,1.9.26V38.4H38.4v-4a17.34,17.34,0,0,0-4.79-.74c-3.33,0-5.14,1.6-5.14,4.58a4,4,0,0,0,.86,2.66c.56.69,1.27,1,3.26,1.68a12.53,12.53,0,0,1,2.72,1,1.74,1.74,0,0,1,.93,1.54,1.92,1.92,0,0,1-2,1.88h-.2a11.21,11.21,0,0,1-2.7-.39V44.72h-2.8Zm22.8-3.67a9.56,9.56,0,0,0-.54-3.71,4.74,4.74,0,0,0-4.69-2.94c-3.32,0-5.38,2.16-5.38,5.64a5.22,5.22,0,0,0,4.73,5.65,4.71,4.71,0,0,0,.84,0,9.05,9.05,0,0,0,4.95-1.47L49.91,46a6.25,6.25,0,0,1-3.5,1.1,2.23,2.23,0,0,1-2.48-1.94h7.45Zm-7.45-2.29a2.07,2.07,0,0,1,2.18-1.79,2,2,0,0,1,2.24,1.79Zm16.34,3.93H58.65v2.68h6.18V46.81H63.38V33.94H58.82v2.68h1.44Zm7.08,0H65.73v2.68h6.18V46.81H70.47v-8H65.91V41.5h1.44Zm-.26-9.39H70.2V34.18H67.09Zm7.22,9.39H72.87v2.68h5.87V46.81H77.42V42.58a3.77,3.77,0,0,1,2.46-1.29c.8,0,1.19.62,1.19,1.9v3.62H79.86v2.68h5.72V46.81H84.17V43.36c0-3.52-.92-4.84-3.41-4.84a4.93,4.93,0,0,0-3.34,1.34v-1H72.86V41.5H74.3Zm13.49,0H86.35v2.68h5.34V47h-.78V33.94H86.35v2.68H87.8Zm6.26.22h-.73v2.46h5.74V46.81H97.71L94.8,43.68l2.46-2.22h1V38.82H92.68V41.2H93.8L91,43.65Zm13-.22h-1.44v2.68h5.85V46.81h-1.3V42.56a3.64,3.64,0,0,1,2.44-1.27c.8,0,1.19.62,1.19,1.9v3.62h-1.21v2.68h5.72V46.81h-1.4V43.36c0-3.52-1-4.84-3.46-4.84a5.09,5.09,0,0,0-3.28,1.25V33.94h-4.55v2.68h1.44Zm22.72-1.64a9.56,9.56,0,0,0-.54-3.71,4.74,4.74,0,0,0-4.69-2.94c-3.32,0-5.37,2.16-5.37,5.64a5.2,5.2,0,0,0,4.72,5.65,4.83,4.83,0,0,0,.85,0,9,9,0,0,0,4.94-1.47L128.33,46a6.25,6.25,0,0,1-3.5,1.1,2.23,2.23,0,0,1-2.48-1.94h7.45Zm-7.45-2.29a2.07,2.07,0,0,1,2.18-1.79,2,2,0,0,1,2.24,1.79Zm10.17,3.93h-1.45v2.68h6.54V46.81h-2V43.12c.82-1.29,1.58-1.81,2.59-1.81a4.1,4.1,0,0,1,1.55.29l.41-2.77a5.31,5.31,0,0,0-1.81-.32c-1.14,0-1.77.36-2.89,1.75V38.83h-4.41v2.68h1.45Z"/></svg>