<svg id="Layer_1" data-name="Layer 1" xmlns="http://www.w3.org/2000/svg" viewBox="0 0 210 105"><defs><style>.cls-1{fill:#c9d3e3;}.cls-2{fill:#2a2c69;}</style></defs><g id="Group_157" data-name="Group 157"><path id="Path_24" data-name="Path 24" class="cls-1" d="M5.18,76.36c29.46-107.19,80.95-14.91,151-66.28s56.33,119.16,18.13,91.49C132,70.93-9.42,139.9,5.18,76.36Z"/></g><path id="Path_30" data-name="Path 30" class="cls-2" d="M49.26,66.61a17.85,17.85,0,0,0,5.57,1c3.3,0,5.24-1.82,5.24-4.86A4.33,4.33,0,0,0,59,59.53a6.85,6.85,0,0,0-3.57-1.78,9.79,9.79,0,0,1-2.33-.82,1.4,1.4,0,0,1-.75-1.27c0-1,.69-1.44,2.07-1.44a7.63,7.63,0,0,1,1.9.26v1.68h2.81v-4a17,17,0,0,0-4.8-.73C51,51.41,49.14,53,49.14,56A4,4,0,0,0,50,58.64c.56.69,1.27,1.06,3.26,1.68a13.32,13.32,0,0,1,2.72,1,1.75,1.75,0,0,1,.93,1.53,1.93,1.93,0,0,1-2,1.89l-.2,0a10.3,10.3,0,0,1-2.7-.39V62.48h-2.8Zm22.79-3.67a9.42,9.42,0,0,0-.54-3.72,4.71,4.71,0,0,0-4.68-2.93c-3.33,0-5.38,2.16-5.38,5.63a5.2,5.2,0,0,0,4.72,5.65,4.83,4.83,0,0,0,.85,0,9,9,0,0,0,5-1.48l-1.39-2.33a6.12,6.12,0,0,1-3.49,1.1,2.23,2.23,0,0,1-2.49-1.93h7.45ZM64.6,60.65a2.07,2.07,0,0,1,2.18-1.79A2,2,0,0,1,69,60.65ZM81,64.58H79.33v2.68H85.5V64.58H84.06V51.71H79.5v2.68h1.44Zm7.08,0H86.41v2.68h6.18V64.58H91.15v-8H86.58v2.68H88Zm-.26-9.39h3.11V52H87.77ZM95,64.58H93.54v2.68h5.88V64.58H98.1V60.35a3.78,3.78,0,0,1,2.46-1.3c.8,0,1.19.63,1.19,1.9v3.63h-1.21v2.68h5.72V64.58h-1.41V61.12c0-3.52-.93-4.83-3.41-4.83a5,5,0,0,0-3.35,1.34v-1H93.54v2.68H95Zm13.5,0H107v2.68h5.33V64.79h-.77V51.71H107v2.68h1.45Zm6.26.21H114v2.47h5.74V64.58h-1.36l-2.92-3.13,2.47-2.23h1V56.59h-5.61V59h1.12l-2.76,2.45Zm13-.21h-1.45v2.68h5.85V64.58h-1.29V60.32a3.68,3.68,0,0,1,2.44-1.27c.8,0,1.19.63,1.19,1.9v3.63h-1.21v2.68H139V64.58h-1.4V61.12c0-3.52-1-4.83-3.46-4.83a5,5,0,0,0-3.28,1.25V51.71h-4.56v2.68h1.45Zm22.71-1.64a9.42,9.42,0,0,0-.54-3.72,4.71,4.71,0,0,0-4.68-2.93c-3.33,0-5.38,2.16-5.38,5.63a5.21,5.21,0,0,0,4.72,5.65,4.84,4.84,0,0,0,.85,0,9,9,0,0,0,4.95-1.48L149,63.77a6.18,6.18,0,0,1-3.5,1.1A2.22,2.22,0,0,1,143,62.94h7.44ZM143,60.65a2.26,2.26,0,0,1,4.42,0Zm10.17,3.93h-1.45v2.68h6.54V64.58h-2V60.89c.82-1.3,1.59-1.82,2.6-1.82a4.35,4.35,0,0,1,1.55.29l.41-2.76a5.09,5.09,0,0,0-1.81-.33c-1.15,0-1.77.37-2.9,1.75V56.6h-4.4v2.67h1.45Z"/></svg>