<svg id="Layer_1" data-name="Layer 1" xmlns="http://www.w3.org/2000/svg" viewBox="0 0 18 250"><defs><style>.cls-1{fill:#1d1d1b;}</style></defs><path class="cls-1" d="M16.36,30c.08-.7.14-1.42.18-2.13a1.25,1.25,0,0,0,.07-2.47c0-7.54-2-15.32-6-23.21a1.23,1.23,0,0,0,.47-1A1.26,1.26,0,1,0,9.82,2.52a1.28,1.28,0,0,0,.33-.06,50.43,50.43,0,0,1,6,23A1.25,1.25,0,0,0,16,27.88c0,.7-.1,1.41-.18,2.11C15.05,37.14,12.6,41.84,10,46.82c-.58,1.1-1.15,2.21-1.72,3.36l-.14,0a1.27,1.27,0,0,0-.88,2.16,47.51,47.51,0,0,0-3,8.82A49.14,49.14,0,0,0,3,75.23a1.34,1.34,0,0,0,.2,2.59A75,75,0,0,0,8.82,99c.19.32.39.67.59,1a1.35,1.35,0,0,0-.51,1.07,1.3,1.3,0,0,0,1.26,1.33,1.22,1.22,0,0,0,.46-.09,51.53,51.53,0,0,1,5.24,25.94,1.37,1.37,0,0,1,0,.19,1.29,1.29,0,0,0-1.23,1.33,1.33,1.33,0,0,0,1,1.3,50.86,50.86,0,0,1-7.2,20.6l0,.05a1.33,1.33,0,0,0-.44-.09A1.3,1.3,0,0,0,6.66,153a1.35,1.35,0,0,0,.5,1.06,55.6,55.6,0,0,0-5.76,23.5,1.3,1.3,0,0,0-1,1.31,1.32,1.32,0,0,0,1,1.31c0,.36,0,.71,0,1.08A55.58,55.58,0,0,0,8,204.84c.27.52.55,1.11.85,1.75a1.34,1.34,0,0,0-.5,1A1.3,1.3,0,0,0,9.57,209a1.07,1.07,0,0,0,.25,0,49.14,49.14,0,0,1,3.39,22.16,1.3,1.3,0,0,0-1,1.3,1.34,1.34,0,0,0,.73,1.21A47.13,47.13,0,0,1,7.6,249.76L8,250a47.57,47.57,0,0,0,5.37-16.26h0a1.31,1.31,0,0,0,1.26-1.34,1.34,1.34,0,0,0-1-1.3,49.57,49.57,0,0,0-3.43-22.37,1.35,1.35,0,0,0,.54-1.1,1.29,1.29,0,0,0-1.25-1.33,1.13,1.13,0,0,0-.32.05c-.29-.64-.58-1.23-.84-1.76a54.88,54.88,0,0,1-6.47-23.41c0-.37,0-.72,0-1.08a1.34,1.34,0,0,0,0-2.59,55,55,0,0,1,5.71-23.28,1.06,1.06,0,0,0,.31,0A1.3,1.3,0,0,0,9.17,153a1.39,1.39,0,0,0-.39-1,.25.25,0,0,0,0-.07,51.41,51.41,0,0,0,7.28-20.85,1.33,1.33,0,0,0,1-1.31,1.35,1.35,0,0,0-.79-1.24,2,2,0,0,0,0-.25A52,52,0,0,0,11,102a1.37,1.37,0,0,0,.37-1,1.3,1.3,0,0,0-1.25-1.34.94.94,0,0,0-.3,0c-.21-.37-.4-.71-.59-1a74.63,74.63,0,0,1-5.53-21,1.33,1.33,0,0,0,.9-1.27,1.3,1.3,0,0,0-1.1-1.32A49.2,49.2,0,0,1,4.7,61.25a47.55,47.55,0,0,1,3-8.66,1.13,1.13,0,0,0,.45.09,1.26,1.26,0,0,0,.62-2.35c.56-1.12,1.12-2.2,1.68-3.27C13.06,42,15.54,37.29,16.36,30Z"/></svg>