<svg xmlns="http://www.w3.org/2000/svg" xmlns:xlink="http://www.w3.org/1999/xlink" width="32" height="32" viewBox="0 0 32 32">
  <defs>
    <clipPath id="clip-Favikon_ani">
      <rect width="32" height="32"/>
    </clipPath>
  </defs>
  <g id="Favikon_ani" clip-path="url(#clip-Favikon_ani)">
    <rect width="32" height="32" fill="#f5eee6"/>
    <g id="Layer_2" data-name="Layer 2" transform="translate(7.157 2.462)">
      <path id="Path_2" data-name="Path 2" d="M16.462,13.5c0,.251-.144.418-.207.418-.127,0-.174-.174-.23-.439-.252-1.19-.71-1.316-1.88-1.42-.752-.063-2.959-.021-3.857-.021-.146,0-.266.209-.271.376-.052,1.476-.092,2.4-.063,4.963a3.977,3.977,0,0,0,1.509-.439,3.414,3.414,0,0,0,1.525-1.551c.27-.6.336-.738.5-.733.1,0,.137.285.111.449-.031.348-.124,1.284-.155,1.589a1.127,1.127,0,0,1-.562.637,7.539,7.539,0,0,1-2.927.781c0,.148,0,.318,0,.522-.021,1.462-.073,2.929.042,4.386.084,1.065.146,1.19,1.293,1.378.273.042.48.146.48.271s-.249.23-.458.23c-.4,0-1.295-.063-2.151-.063-.814,0-1.963.063-2.318.063-.292,0-.439-.084-.439-.188s.125-.174.376-.251c1.128-.23,1.232-.459,1.357-1.357.089-.675.117-2.959.124-4.995A7.588,7.588,0,0,1,2.7,15.137,8.547,8.547,0,0,1,1.229,9.984a7.773,7.773,0,0,1,3.164-6.3A7.992,7.992,0,0,1,9.44,2.18a11.43,11.43,0,0,1,3.007.564,2.447,2.447,0,0,0,.933.216c.1,0,.221.266.2.359a23.843,23.843,0,0,0,0,2.391c.03.376-.08.56-.205.555-.084,0-.174-.193-.256-.5A3.237,3.237,0,0,0,11.9,3.781,4.71,4.71,0,0,0,8.921,2.7c-3.465-.11-5.492,2.61-5.614,6.439a10.4,10.4,0,0,0,.6,4.018A6.317,6.317,0,0,0,8.258,17.3v-.225c0-1.232-.021-2.785-.063-3.717-.042-1.149-.174-1.441-1.295-1.566-.188-.021-.418-.063-.418-.23s.23-.209.585-.209c.585,0,1.357.063,2.067.063h5.6c.647,0,1.316-.125,1.483-.125a.332.332,0,0,1,.209.271C16.422,12.147,16.462,12.9,16.462,13.5Z" transform="translate(0 0)" fill="#695341"/>
    </g>
  </g>
</svg>
